<?xml version="1.0" encoding="utf-8"?>
<!-- Svg Vector Icons : http://www.onlinewebfonts.com/icon -->
<!DOCTYPE svg PUBLIC "-//W3C//DTD SVG 1.1//EN" "http://www.w3.org/Graphics/SVG/1.1/DTD/svg11.dtd">
<svg version="1.1" xmlns="http://www.w3.org/2000/svg" xmlns:xlink="http://www.w3.org/1999/xlink" x="0px" y="0px" viewBox="0 0 256 256" enable-background="new 0 0 256 256" xml:space="preserve">
<metadata> Svg Vector Icons : http://www.onlinewebfonts.com/icon </metadata>
<g><g><g><path fill="#000000" d="M94.1,55.3c-17.8,2.2-33.7,11.9-43.4,26.4c-6.2,9.3-9.5,19.1-10,30.2l-0.3,4.8l-2.7,1c-5.2,2-9.6,5.1-14.4,10.1c-7.1,7.4-11.8,17-13.1,26.3c-0.6,4.1-0.2,11.5,0.8,15.1c3.9,14.6,18.3,26.9,36.3,31l3.8,0.8h77c72.9,0,77.1,0,80.1-0.7c18-3.8,31.7-15.1,36.8-30.2c1-3,1.1-3.4,1-10.5c0-6.9-0.1-7.6-1-10.6c-4.9-15.9-18.8-29.3-34.6-33.3c-1.9-0.5-4-0.9-4.6-0.9c-1.7,0-1.9-0.3-2.2-3c-0.7-7.3-5.1-15.1-11-19.9c-2.7-2.2-8-4.9-11.3-5.8c-1.8-0.5-3.8-0.7-8.1-0.7c-5.5,0-5.9,0.1-9.2,1.2c-1.9,0.7-4.5,1.8-5.7,2.5c-1.2,0.7-2.2,1.2-2.3,1.2c0-0.1-0.8-1.6-1.8-3.4c-8.2-16-24.5-27.7-42.9-31C107.3,55.1,97.9,54.8,94.1,55.3z M180.4,125c5.4,1.7,8.2,5.5,8.5,11.6l0.1,3.2h-4.5h-4.5V138c0-3-1.3-5.4-3.4-6.5c-1.4-0.7-4.7-1-6.5-0.6c-4,1.1-6.2,5.8-4.8,10.4c1,3.2,3.7,5.1,11,7.7c7.9,2.8,11,4.9,12.9,8.8c1,2,1,2.4,1,7.1c0,4.3-0.1,5.3-0.8,7.1c-1,2.5-3.5,5.5-5.8,6.8c-3.6,2.1-11.5,3.1-16.5,2c-4.2-0.9-8-3.7-9.9-7.3c-1-1.9-1.8-5.8-1.8-8.4v-1.9h4.4h4.4l0.2,2.8c0.3,3.5,1.4,5.8,3.5,7.3c1.4,1,1.9,1.1,4.8,1.3c2.8,0.1,3.4,0,4.9-0.7c0.9-0.5,2.1-1.6,2.8-2.5c0.9-1.3,1.1-2,1.2-4.3c0.3-5.8-1.6-7.9-9.4-10.7c-6.8-2.4-9.8-3.9-12.1-6.2c-2.8-2.7-3.6-5.2-3.7-10.2c0-4.4,0.6-6.6,2.5-9.4c2.2-3.1,5.9-5.3,10.3-6.1C172,123.8,177.7,124.2,180.4,125z M87.9,152.6l7.2,27.3l-4.4,0.1c-2.4,0-4.5,0-4.6-0.2c-0.1-0.1-1-3.2-1.9-6.6l-1.6-6.4h-8.1h-8.2l-1.4,5.4c-0.8,3-1.6,6-1.7,6.7l-0.3,1.2h-4.7c-3.5,0-4.6-0.1-4.5-0.5c0.1-0.2,3.7-12.6,7.9-27.5l7.7-27l5.7,0.1l5.7,0.1L87.9,152.6z M106.7,146.1c2,11.5,3.7,21.1,3.7,21.3c0.1,0.4,7.4-41.1,7.3-42.1c0-0.1,2.1-0.3,4.7-0.3h4.7l3.6,20.9c2,11.6,3.7,21.2,3.8,21.5c0.1,0.3,1.8-9.1,3.8-20.9c2-11.8,3.7-21.4,3.7-21.5c0,0,2-0.1,4.3-0.1c3.5,0,4.2,0.1,4.2,0.6c0,0.3-2.4,12.5-5.4,27.2c-3,14.7-5.4,26.8-5.4,26.9c0,0.2-2.3,0.3-5.1,0.3c-4.6,0-5.2-0.1-5.4-0.7c-0.1-0.3-1.7-9.6-3.6-20.6c-1.9-11-3.5-20-3.5-19.9c-0.1,0-1.6,8.9-3.4,19.6c-1.8,10.7-3.4,20-3.5,20.6l-0.2,1H110h-5.1l-0.4-2c-0.2-1-2.5-13-5.2-26.7c-2.6-13.6-4.9-25.1-5-25.6l-0.2-0.9l4.5,0.1l4.5,0.1L106.7,146.1z"/><path fill="#000000" d="M71.2,145.8c-1.7,7.1-3.2,13.2-3.2,13.5c-0.1,0.4,0.9,0.5,6.3,0.5c3.6,0,6.5-0.1,6.5-0.3c0-0.6-6.1-26.7-6.3-26.7C74.5,132.8,73,138.6,71.2,145.8z"/></g></g></g>
</svg>